<svg xmlns="http://www.w3.org/2000/svg" viewBox="0 0 64 64" width="80" height="80">
  <!-- Jar body -->
  <rect x="16" y="14" width="32" height="40" rx="10" ry="10" fill="#FFF5EB" stroke="#A4161A" stroke-width="3"/>
  
  <!-- Jar lid -->
  <rect x="14" y="10" width="36" height="6" rx="2" ry="2" fill="#A4161A"/>
  
  <!-- Hearts inside -->
  <path d="M24 30c0-2 2-4 4-4s4 2 4 4c0-2 2-4 4-4s4 2 4 4c0 4-8 9-8 9s-8-5-8-9z" fill="#E63946"/>
  <path d="M28 42c0-1.5 1.5-3 3-3s3 1.5 3 3c0-1.5 1.5-3 3-3s3 1.5 3 3c0 3-6 6-6 6s-6-3-6-6z" fill="#FF6F61"/>
</svg>